<svg xmlns="http://www.w3.org/2000/svg" fill="none" viewBox="0 0 48 48" data-test="IdentityIcon-icon" aria-label="Toggle Identity" class="identity-icon_icon__roZ5V identity-icon_lg__nzYB1 identity-icon_active__N_S3u  "><rect width="48" height="48" fill="#DEDEDE" rx="24"></rect><path fill="#000" fill-rule="evenodd" d="M18.75 19c0-2.758 2.242-5 5-5s5 2.242 5 5-2.242 5-5 5-5-2.242-5-5Zm5-2.5a2.504 2.504 0 0 0-2.5 2.5c0 1.377 1.123 2.5 2.5 2.5s2.5-1.123 2.5-2.5-1.123-2.5-2.5-2.5ZM20 27.75a2.5 2.5 0 0 0-2.5 2.5v3.25a1.25 1.25 0 1 1-2.5 0v-3.25a5 5 0 0 1 5-5h7.5a5 5 0 0 1 5 5v3.25a1.25 1.25 0 1 1-2.5 0v-3.25a2.5 2.5 0 0 0-2.5-2.5H20Zm0 1.875a1.25 1.25 0 1 0 0 2.5h1.875a1.25 1.25 0 1 0 0-2.5H20Z" clip-rule="evenodd"></path></svg>